<?xml version="1.0" standalone="no"?><!DOCTYPE svg PUBLIC "-//W3C//DTD SVG 1.1//EN" "http://www.w3.org/Graphics/SVG/1.1/DTD/svg11.dtd"><svg t="1701150552372" class="icon" viewBox="0 0 1024 1024" version="1.1" xmlns="http://www.w3.org/2000/svg" p-id="40965" xmlns:xlink="http://www.w3.org/1999/xlink" width="48" height="48"><path d="M994.304 512.512c0 268.8-218.112 486.912-486.912 486.912C238.592 998.912 20.48 780.8 20.48 512.512 20.48 243.712 238.592 25.6 507.392 25.6c64.512 0 126.464 12.8 182.784 35.328 178.176 72.192 304.128 247.296 304.128 451.584z" fill="#FFE500" p-id="40966"></path><path d="M600.064 927.232c-268.8 0-486.912-218.112-486.912-486.912 0-143.872 62.464-272.896 161.28-361.984C116.736 159.232 9.216 323.072 9.216 512.512c0 268.8 218.112 486.912 486.912 486.912 124.928 0 239.616-47.104 325.632-124.928-69.12 34.816-144.896 52.736-221.696 52.736z" fill="#EBCB00" p-id="40967"></path><path d="M225.792 478.208c-36.352 0-65.536 29.184-65.536 65.536h131.072c-0.512-36.352-29.696-65.536-65.536-65.536z m570.88 0c-36.352 0-65.536 29.184-65.536 65.536h131.072c-0.512-36.352-29.696-65.536-65.536-65.536z" fill="#FFA178" p-id="40968"></path><path d="M510.976 1018.88c-68.608 0-135.168-13.312-197.632-39.936-60.416-25.6-115.2-62.464-161.28-109.056-46.592-46.08-83.456-100.864-109.056-161.28C16.384 646.144 2.56 578.56 3.072 510.976c0-68.608 13.312-135.168 39.936-197.632 25.6-60.416 62.464-115.2 109.056-161.28 46.08-46.592 100.864-83.456 161.28-109.056C375.808 16.384 442.88 3.072 510.976 3.072c68.608 0 135.168 13.312 197.632 39.936 60.416 25.6 115.2 62.464 161.28 109.056 46.592 46.08 83.456 100.864 109.056 161.28 26.624 62.464 39.936 129.536 39.936 197.632 0 68.608-13.312 135.168-39.936 197.632-25.6 60.416-62.464 115.2-109.056 161.28-46.08 46.592-100.864 83.456-161.28 109.056-62.464 26.624-130.048 39.936-197.632 39.936z m0-979.968C250.88 38.912 38.912 250.368 38.912 510.464s211.456 472.064 471.552 472.064 471.552-211.456 471.552-471.552-210.944-472.064-471.04-472.064z" fill="#EBCB00" p-id="40969"></path><path d="M250.368 311.808c0 51.2 27.648 92.672 61.952 92.672s61.44-40.96 61.44-92.16-27.648-92.672-61.952-92.672c-33.792-0.512-61.44 40.96-61.44 92.16zM621.056 311.808c0 51.2 27.648 92.672 61.952 92.672 34.304 0 61.952-41.472 61.952-92.672 0-51.2-27.648-92.672-61.952-92.672-34.304 0-61.952 41.472-61.952 92.672z" fill="#323232" p-id="40970"></path><path d="M311.808 590.336h370.688c0 102.4-82.944 185.344-185.344 185.344s-185.344-82.944-185.344-185.344z" fill="#873A17" p-id="40971"></path><path d="M311.808 590.336h370.688v30.72H311.808v-30.72z" fill="#FFFFFF" p-id="40972"></path><path d="M650.752 694.272c-34.304 50.688-92.16 81.408-153.6 81.408s-118.784-30.208-153.088-80.896c9.728-39.424 77.824-10.24 156.672-10.24 78.848-0.512 140.8-29.184 150.016 9.728z" fill="#DB634E" p-id="40973"></path><path d="M239.104 164.352c4.096 15.872 34.816 23.552 79.872 20.48 45.056-3.072 97.792-17.408 138.752-36.864s63.488-41.472 59.392-57.344-34.816-23.552-79.872-20.48c-45.056 3.072-97.792 17.408-138.752 36.864-41.472 19.456-63.488 41.472-59.392 57.344z" fill="#FFF0B3" p-id="40974"></path></svg>