<?xml version="1.0" standalone="no"?><!DOCTYPE svg PUBLIC "-//W3C//DTD SVG 1.1//EN" "http://www.w3.org/Graphics/SVG/1.1/DTD/svg11.dtd"><svg t="1701150850298" class="icon" viewBox="0 0 1024 1024" version="1.1" xmlns="http://www.w3.org/2000/svg" p-id="43363" xmlns:xlink="http://www.w3.org/1999/xlink" width="48" height="48"><path d="M1024 512c0 153.6-229.248 384-512 384a547.328 547.328 0 0 1-205.76-40.96l157.248-157.248a192 192 0 0 0 234.368-234.368l189.568-189.568C972.16 348.608 1024 438.976 1024 512z m-137.664-374.336c11.456 11.52 12.736 29.312 3.84 42.24l-3.84 4.544L184.448 886.272a33.088 33.088 0 0 1-50.56-42.24l3.84-4.544L839.488 137.6a33.088 33.088 0 0 1 46.72 0zM512 128c73.216 0 142.784 15.424 205.76 40.96L560.512 326.208a192 192 0 0 0-234.368 234.24L136.512 750.08C51.776 675.392 0 584.96 0 512c0-153.6 229.248-384 512-384z m9.6 511.68L639.552 521.6A128 128 0 0 1 521.6 639.68z m-19.2-255.36L384.384 502.4A128 128 0 0 1 502.4 384.384z" fill="#333333" p-id="43364"></path></svg>