<?xml version="1.0" standalone="no"?><!DOCTYPE svg PUBLIC "-//W3C//DTD SVG 1.1//EN" "http://www.w3.org/Graphics/SVG/1.1/DTD/svg11.dtd"><svg t="1701150162048" class="icon" viewBox="0 0 1024 1024" version="1.1" xmlns="http://www.w3.org/2000/svg" p-id="17741" xmlns:xlink="http://www.w3.org/1999/xlink" width="48" height="48"><path d="M30.492444 502.556444l58.254223-40.789333 179.484444 256.312889-58.254222 40.789333-179.484445-256.312889z" fill="#42484C" p-id="17742"></path><path d="M110.848 480.967111L40.96 529.92a14.250667 14.250667 0 0 1-16.298667-23.296l69.888-48.952889a14.250667 14.250667 0 0 1 16.298667 23.296z m186.453333 216.689778l-116.508444 81.578667a14.250667 14.250667 0 0 1-16.298667-23.296l116.508445-81.578667a14.250667 14.250667 0 0 1 16.298666 23.296z" fill="#66757F" p-id="17743"></path><path d="M198.286222 767.032889l81.578667-57.116445L426.666667 919.608889l-81.550223 57.116444-146.830222-209.720889z m-135.168-217.884445l58.254222-40.789333 16.298667 23.324445-58.254222 40.760888-16.298667-23.324444z m32.625778 46.592l58.254222-40.789333 16.298667 23.324445-58.254222 40.789333-16.298667-23.324445z m32.625778 46.620445l58.254222-40.789333 16.327111 23.324444-58.254222 40.789333-16.327111-23.324444z m32.625778 46.620444l58.254222-40.789333 16.327111 23.296-58.254222 40.789333-16.327111-23.324444z" fill="#000000" p-id="17744"></path><path d="M664.177778 572.871111s111.530667 88.234667 63.232 195.128889c0.028444 0-129.166222-65.934222-63.232-195.128889z" fill="#292F33" p-id="17745"></path><path d="M738.616889 727.978667c5.432889-46.592-15.701333-87.182222-36.864-115.2a248.888889 248.888889 0 0 0-47.416889-17.123556c-1.137778 3.157333-1.735111 6.115556-2.645333 9.216 3.953778 75.064889 48.184889 108.487111 86.926222 123.107556z" fill="#000000" p-id="17746"></path><path d="M654.222222 568.888889s139.52 27.534222 145.408 144.668444c0 0-145.038222 0.369778-145.408-144.668444z m256 455.111111v-56.888889c0-94.264889-76.373333-170.666667-170.666666-170.666667H284.444444a170.666667 170.666667 0 0 0-170.666666 170.666667v56.888889h796.444444z" fill="#292F33" p-id="17747"></path><path d="M364.060444 760.917333h295.907556V881.777778H364.060444v-120.860445z" fill="#292F33" p-id="17748"></path><path d="M398.222222 768h227.555556s-28.956444 199.111111-113.777778 199.111111-113.777778-199.111111-113.777778-199.111111z" fill="#292F33" p-id="17749"></path><path d="M387.982222 854.414222C437.589333 890.481778 468.992 910.222222 512 910.222222c43.008 0 74.382222-19.797333 123.989333-55.836444v-163.555556h-248.035555v163.555556h0.028444z" fill="#292F33" p-id="17750"></path><path d="M387.754667 738.787556c34.588444 39.082667 77.482667 49.664 124.131555 49.664 46.620444 0 89.486222-10.609778 124.103111-49.664v-99.271112h-248.263111v99.271112h0.028445z" fill="#000000" p-id="17751"></path><path d="M325.518222 453.290667c0 41.187556-20.878222 74.581333-46.620444 74.581333s-46.620444-33.393778-46.620445-74.581333 20.878222-74.609778 46.620445-74.609778c25.742222-0.028444 46.620444 33.393778 46.620444 74.609778z m466.176 0c0 41.187556-20.849778 74.581333-46.620444 74.581333-25.742222 0-46.620444-33.393778-46.620445-74.581333s20.849778-74.609778 46.620445-74.609778c25.770667-0.028444 46.620444 33.393778 46.620444 74.609778z" fill="#292F33" p-id="17752"></path><path d="M269.568 470.471111C269.568 256 341.333333 142.222222 512 142.222222s242.403556 113.777778 242.403556 328.248889c0 165.575111-108.515556 299.804444-242.403556 299.804445-133.888 0-242.432-134.229333-242.432-299.804445z" fill="#292F33" p-id="17753"></path><path d="M312.888889 796.444444c0 28.444444 28.444444 85.333333 85.333333 142.222223 44.970667 44.970667 77.340444 85.333333 77.340445 85.333333 22.670222-0.142222 54.044444-0.113778 77.653333-0.028444-25.344-57.457778-70.456889-98.730667-93.269333-121.543112C431.502222 873.984 369.777778 824.888889 369.777778 768c0-28.444444-56.888889 28.444444-56.888889 28.444444z" fill="#66757F" p-id="17754"></path><path d="M475.562667 1024h77.482666c-14.563556-33.052444-35.584-60.529778-55.182222-82.432a337.749333 337.749333 0 0 0-39.964444 61.44c11.036444 12.8 17.664 20.992 17.664 20.992z" fill="#292F33" p-id="17755"></path><path d="M711.111111 796.444444c0 28.444444-28.444444 85.333333-85.333333 142.222223-44.970667 44.970667-71.111111 85.333333-71.111111 85.333333-25.656889-0.113778-40.334222-0.056889-85.333334 0 25.344-57.457778 71.907556-98.759111 94.72-121.571556C592.497778 873.984 654.222222 824.888889 654.222222 768c0-28.444444 56.888889 28.444444 56.888889 28.444444z" fill="#66757F" p-id="17756"></path><path d="M512 390.001778c-85.191111 0-230.855111-58.140444-200.931556 56.32 17.464889 66.787556 40.305778 81.948444 98.844445 74.126222 60.416-8.049778 56.632889-28.899556 99.413333-28.899556s44.373333 20.849778 104.789334 28.899556c58.538667 7.793778 81.379556-7.338667 98.844444-74.126222 29.895111-114.460444-115.768889-56.32-200.96-56.32z" fill="#F3D2A2" p-id="17757"></path><path d="M398.222222 483.555556c-15.644444 0-28.444444-12.8-28.444444-28.444445v-28.444444c0-15.644444 12.8-28.444444 28.444444-28.444445s28.444444 12.8 28.444445 28.444445v28.444444c0 15.644444-12.8 28.444444-28.444445 28.444445z m227.555556 0c-15.644444 0-28.444444-12.8-28.444445-28.444445v-28.444444c0-15.644444 12.8-28.444444 28.444445-28.444445s28.444444 12.8 28.444444 28.444445v28.444444c0 15.644444-12.8 28.444444-28.444444 28.444445z" fill="#662113" p-id="17758"></path></svg>